<?xml version="1.0" encoding="utf-8"?>
<!-- Generator: Adobe Illustrator 22.1.0, SVG Export Plug-In . SVG Version: 6.00 Build 0)  -->
<svg version="1.1" id="Capa_1" xmlns="http://www.w3.org/2000/svg" xmlns:xlink="http://www.w3.org/1999/xlink" x="0px" y="0px"
	 viewBox="0 0 520.8 165.1" style="enable-background:new 0 0 520.8 165.1;" xml:space="preserve">
<style type="text/css">
	.st0{fill:#FFFFFF;}
	.st1{opacity:0.1;}
	.st2{fill:#020203;}
</style>
<g id="Capa_1_1_">
	<polygon class="st0" points="94.9,77.1 94.9,41.7 94.2,41.7 78,57.2 78,77.1 61.9,77.1 61.9,41.7 61.2,41.7 45,57.2 45,93.7 
		58.6,93.7 61.9,93.7 78,78.4 78,93.7 91.4,93.7 94.9,93.7 111.6,77.8 111.6,77.1 	"/>
</g>
<g>
	<path class="st0" d="M123.7,46.5h4.8l4.3,12.5l4.3-12.5h4.6l-6.7,17.2h-4.7L123.7,46.5z"/>
	<path class="st0" d="M147.3,45c0.4,0.4,0.6,1,0.6,1.7c0,0.7-0.2,1.2-0.6,1.7c-0.4,0.4-1,0.7-1.7,0.7c-0.7,0-1.2-0.2-1.7-0.7
		c-0.4-0.4-0.7-1-0.7-1.7c0-0.7,0.2-1.2,0.7-1.7c0.4-0.4,1-0.7,1.7-0.7C146.3,44.4,146.9,44.6,147.3,45z M143.5,50.5h4.4v13.3h-4.4
		V50.5z"/>
	<path class="st0" d="M157.1,53.9c-0.8,0-1.4,0.3-1.9,0.9c-0.5,0.6-0.7,1.4-0.7,2.3c0,1,0.2,1.7,0.7,2.3c0.5,0.6,1.1,0.9,1.9,0.9
		c1.2,0,2.1-0.5,2.6-1.5l3.2,1.8c-0.5,1-1.3,1.8-2.4,2.4c-1,0.6-2.3,0.8-3.7,0.8c-1.4,0-2.6-0.3-3.6-0.8c-1-0.6-1.8-1.3-2.4-2.4
		c-0.6-1-0.8-2.2-0.8-3.5c0-1.4,0.3-2.6,0.9-3.6c0.6-1,1.4-1.8,2.4-2.4c1-0.6,2.2-0.8,3.6-0.8c1.3,0,2.5,0.3,3.5,0.8
		c1,0.5,1.8,1.3,2.4,2.3l-3.2,1.8C159.1,54.4,158.2,53.9,157.1,53.9z"/>
	<path class="st0" d="M175.4,52.3c1.2,1.3,1.7,3,1.7,5.3c0,0.3,0,0.6,0,0.8h-9.2c0.2,0.8,0.6,1.3,1.1,1.7s1.2,0.6,1.9,0.6
		c0.6,0,1.1-0.1,1.7-0.3s1-0.6,1.5-1l2.3,2.3c-0.7,0.8-1.5,1.4-2.5,1.8c-1,0.4-2.1,0.6-3.3,0.6c-1.4,0-2.7-0.3-3.7-0.8
		c-1.1-0.6-1.9-1.3-2.4-2.4c-0.6-1-0.8-2.2-0.8-3.5c0-1.4,0.3-2.6,0.9-3.6c0.6-1,1.4-1.8,2.4-2.4s2.3-0.8,3.6-0.8
		C172.6,50.3,174.3,51,175.4,52.3z M172.9,56c0-0.8-0.2-1.4-0.7-1.9c-0.5-0.5-1-0.7-1.8-0.7c-0.7,0-1.3,0.2-1.7,0.7
		c-0.5,0.5-0.8,1.1-0.9,1.9H172.9z"/>
	<path class="st0" d="M185.6,50.9c0.7-0.4,1.6-0.6,2.5-0.6v4c-0.1,0-0.4,0-0.7,0c-1,0-1.9,0.2-2.5,0.7c-0.6,0.5-1,1.1-1.1,2v6.8
		h-4.4V50.5h4.4v2.2C184.2,51.9,184.8,51.3,185.6,50.9z"/>
	<path class="st0" d="M196.1,50.9c0.7-0.4,1.6-0.6,2.5-0.6v4c-0.1,0-0.4,0-0.7,0c-1,0-1.9,0.2-2.5,0.7c-0.6,0.5-1,1.1-1.1,2v6.8H190
		V50.5h4.4v2.2C194.8,51.9,195.4,51.3,196.1,50.9z"/>
	<path class="st0" d="M211.4,52.3c1.2,1.3,1.7,3,1.7,5.3c0,0.3,0,0.6,0,0.8h-9.2c0.2,0.8,0.6,1.3,1.1,1.7s1.2,0.6,1.9,0.6
		c0.6,0,1.1-0.1,1.7-0.3s1-0.6,1.5-1l2.3,2.3c-0.7,0.8-1.5,1.4-2.5,1.8c-1,0.4-2.1,0.6-3.3,0.6c-1.4,0-2.7-0.3-3.7-0.8
		c-1.1-0.6-1.9-1.3-2.4-2.4c-0.6-1-0.8-2.2-0.8-3.5c0-1.4,0.3-2.6,0.9-3.6c0.6-1,1.4-1.8,2.4-2.4s2.3-0.8,3.6-0.8
		C208.5,50.3,210.2,51,211.4,52.3z M208.9,56c0-0.8-0.2-1.4-0.7-1.9c-0.5-0.5-1-0.7-1.8-0.7c-0.7,0-1.3,0.2-1.7,0.7
		c-0.5,0.5-0.8,1.1-0.9,1.9H208.9z"/>
	<path class="st0" d="M221.3,53.9c-0.8,0-1.4,0.3-1.9,0.9c-0.5,0.6-0.7,1.4-0.7,2.3c0,1,0.2,1.7,0.7,2.3c0.5,0.6,1.1,0.9,1.9,0.9
		c1.2,0,2.1-0.5,2.6-1.5l3.2,1.8c-0.5,1-1.3,1.8-2.4,2.4c-1,0.6-2.3,0.8-3.7,0.8c-1.4,0-2.6-0.3-3.6-0.8c-1-0.6-1.8-1.3-2.4-2.4
		c-0.6-1-0.8-2.2-0.8-3.5c0-1.4,0.3-2.6,0.9-3.6c0.6-1,1.4-1.8,2.4-2.4c1-0.6,2.2-0.8,3.6-0.8c1.3,0,2.5,0.3,3.5,0.8
		c1,0.5,1.8,1.3,2.4,2.3l-3.2,1.8C223.3,54.4,222.4,53.9,221.3,53.9z"/>
	<path class="st0" d="M237.8,63.1c-0.5,0.3-1.1,0.5-1.7,0.6s-1.3,0.2-1.9,0.2c-1.3,0-2.4-0.4-3.2-1.1c-0.8-0.8-1.2-1.8-1.2-3.1V54
		h-1.8v-2.9h1.8v-3.7h4.4v3.7h3.4V54h-3.4v5c0,0.9,0.4,1.4,1.2,1.4c0.5,0,1-0.1,1.7-0.4L237.8,63.1z"/>
	<path class="st0" d="M249.8,51.2c1.1,0.6,1.9,1.4,2.6,2.4s0.9,2.2,0.9,3.6c0,1.4-0.3,2.6-0.9,3.6c-0.6,1-1.5,1.8-2.6,2.4
		c-1.1,0.6-2.4,0.8-3.8,0.8c-1.4,0-2.7-0.3-3.8-0.8c-1.1-0.6-1.9-1.4-2.5-2.4c-0.6-1-0.9-2.2-0.9-3.6c0-1.3,0.3-2.5,0.9-3.6
		c0.6-1,1.4-1.8,2.5-2.4s2.4-0.8,3.8-0.8C247.4,50.3,248.7,50.6,249.8,51.2z M243.9,54.8c-0.5,0.6-0.8,1.4-0.8,2.4
		c0,1,0.3,1.8,0.8,2.4c0.5,0.6,1.2,0.9,2.1,0.9c0.9,0,1.6-0.3,2.1-0.9c0.5-0.6,0.8-1.4,0.8-2.4c0-1-0.3-1.8-0.8-2.4
		c-0.5-0.6-1.2-0.9-2.1-0.9C245.1,53.9,244.4,54.2,243.9,54.8z"/>
	<path class="st0" d="M261.6,50.9c0.7-0.4,1.6-0.6,2.5-0.6v4c-0.1,0-0.4,0-0.7,0c-1,0-1.9,0.2-2.5,0.7c-0.6,0.5-1,1.1-1.1,2v6.8
		h-4.4V50.5h4.4v2.2C260.3,51.9,260.9,51.3,261.6,50.9z"/>
	<path class="st0" d="M275.9,51.6c1,0.8,1.5,2,1.5,3.5v8.7h-4.3v-1.5c-0.9,1.1-2.2,1.7-4,1.7c-1.4,0-2.5-0.4-3.3-1.1s-1.2-1.8-1.2-3
		c0-1.3,0.4-2.2,1.3-3c0.9-0.7,2.1-1.1,3.8-1.1h3.5v-0.1c0-0.6-0.2-1.1-0.7-1.5c-0.4-0.3-1.1-0.5-1.9-0.5c-0.6,0-1.2,0.1-1.9,0.3
		s-1.4,0.4-2.1,0.8l-1.2-2.9c1.1-0.5,2.1-0.9,3.1-1.1c1-0.2,2-0.4,3.1-0.4C273.5,50.3,274.9,50.7,275.9,51.6z M272.3,60.5
		c0.5-0.3,0.8-0.7,0.9-1.2v-1.2h-2.6c-1.2,0-1.8,0.5-1.8,1.4c0,0.5,0.2,0.8,0.5,1.1c0.3,0.3,0.8,0.4,1.3,0.4
		C271.2,61,271.8,60.8,272.3,60.5z"/>
	<path class="st0" d="M293.8,45.5v18.2h-4.4v-1.7c-0.5,0.6-1,1.1-1.7,1.4c-0.7,0.3-1.4,0.5-2.3,0.5c-1.2,0-2.3-0.3-3.2-0.9
		c-0.9-0.6-1.7-1.4-2.2-2.4c-0.5-1-0.8-2.2-0.8-3.6c0-1.3,0.3-2.5,0.8-3.5c0.5-1,1.2-1.8,2.1-2.4c0.9-0.6,2-0.8,3.2-0.8
		c0.8,0,1.6,0.2,2.3,0.5c0.7,0.3,1.3,0.8,1.7,1.4v-6.7H293.8z M288.7,59.6c0.5-0.6,0.8-1.4,0.8-2.4c0-1-0.3-1.8-0.8-2.4
		c-0.5-0.6-1.2-0.9-2.1-0.9c-0.8,0-1.5,0.3-2.1,0.9c-0.5,0.6-0.8,1.4-0.8,2.4s0.3,1.8,0.8,2.4s1.2,0.9,2.1,0.9
		C287.5,60.5,288.2,60.2,288.7,59.6z"/>
	<path class="st0" d="M307.3,51.2c1.1,0.6,1.9,1.4,2.6,2.4s0.9,2.2,0.9,3.6c0,1.4-0.3,2.6-0.9,3.6c-0.6,1-1.5,1.8-2.6,2.4
		c-1.1,0.6-2.4,0.8-3.8,0.8c-1.4,0-2.7-0.3-3.8-0.8c-1.1-0.6-1.9-1.4-2.5-2.4c-0.6-1-0.9-2.2-0.9-3.6c0-1.3,0.3-2.5,0.9-3.6
		c0.6-1,1.4-1.8,2.5-2.4s2.4-0.8,3.8-0.8C304.9,50.3,306.2,50.6,307.3,51.2z M301.4,54.8c-0.5,0.6-0.8,1.4-0.8,2.4
		c0,1,0.3,1.8,0.8,2.4c0.5,0.6,1.2,0.9,2.1,0.9c0.9,0,1.6-0.3,2.1-0.9c0.5-0.6,0.8-1.4,0.8-2.4c0-1-0.3-1.8-0.8-2.4
		c-0.5-0.6-1.2-0.9-2.1-0.9C302.6,53.9,301.9,54.2,301.4,54.8z"/>
	<path class="st0" d="M333.8,45.5v18.2h-4.4v-1.7c-0.5,0.6-1,1.1-1.7,1.4c-0.7,0.3-1.4,0.5-2.3,0.5c-1.2,0-2.3-0.3-3.2-0.9
		c-0.9-0.6-1.7-1.4-2.2-2.4c-0.5-1-0.8-2.2-0.8-3.6c0-1.3,0.3-2.5,0.8-3.5c0.5-1,1.2-1.8,2.1-2.4c0.9-0.6,2-0.8,3.2-0.8
		c0.8,0,1.6,0.2,2.3,0.5c0.7,0.3,1.3,0.8,1.7,1.4v-6.7H333.8z M328.6,59.6c0.5-0.6,0.8-1.4,0.8-2.4c0-1-0.3-1.8-0.8-2.4
		c-0.5-0.6-1.2-0.9-2.1-0.9c-0.8,0-1.5,0.3-2.1,0.9c-0.5,0.6-0.8,1.4-0.8,2.4s0.3,1.8,0.8,2.4s1.2,0.9,2.1,0.9
		C327.4,60.5,328.1,60.2,328.6,59.6z"/>
	<path class="st0" d="M348.1,52.3c1.2,1.3,1.7,3,1.7,5.3c0,0.3,0,0.6,0,0.8h-9.2c0.2,0.8,0.6,1.3,1.1,1.7s1.2,0.6,1.9,0.6
		c0.6,0,1.1-0.1,1.7-0.3s1-0.6,1.5-1l2.3,2.3c-0.7,0.8-1.5,1.4-2.5,1.8c-1,0.4-2.1,0.6-3.3,0.6c-1.4,0-2.7-0.3-3.7-0.8
		c-1.1-0.6-1.9-1.3-2.4-2.4s-0.8-2.2-0.8-3.5c0-1.4,0.3-2.6,0.9-3.6c0.6-1,1.4-1.8,2.4-2.4c1-0.6,2.3-0.8,3.6-0.8
		C345.2,50.3,346.9,51,348.1,52.3z M345.6,56c0-0.8-0.2-1.4-0.7-1.9c-0.5-0.5-1-0.7-1.8-0.7c-0.7,0-1.3,0.2-1.7,0.7
		c-0.5,0.5-0.8,1.1-0.9,1.9H345.6z"/>
	<path class="st0" d="M372.1,48.1c1.2,1.1,1.8,2.5,1.8,4.5c0,2-0.6,3.6-1.8,4.7c-1.2,1.1-2.9,1.7-5.1,1.7h-3.1v4.8h-4.5V46.5h7.6
		C369.2,46.5,370.9,47.1,372.1,48.1z M368.9,54.7c0.5-0.5,0.8-1.1,0.8-2c0-0.8-0.2-1.5-0.8-1.9c-0.5-0.5-1.2-0.7-2.1-0.7h-2.9v5.3
		h2.9C367.7,55.4,368.4,55.2,368.9,54.7z"/>
	<path class="st0" d="M387,52.3c1.2,1.3,1.7,3,1.7,5.3c0,0.3,0,0.6,0,0.8h-9.2c0.2,0.8,0.6,1.3,1.1,1.7s1.2,0.6,1.9,0.6
		c0.6,0,1.1-0.1,1.7-0.3s1-0.6,1.5-1l2.3,2.3c-0.7,0.8-1.5,1.4-2.5,1.8c-1,0.4-2.1,0.6-3.3,0.6c-1.4,0-2.7-0.3-3.7-0.8
		c-1.1-0.6-1.9-1.3-2.4-2.4s-0.8-2.2-0.8-3.5c0-1.4,0.3-2.6,0.9-3.6c0.6-1,1.4-1.8,2.4-2.4c1-0.6,2.3-0.8,3.6-0.8
		C384.1,50.3,385.8,51,387,52.3z M384.5,56c0-0.8-0.2-1.4-0.7-1.9c-0.5-0.5-1-0.7-1.8-0.7c-0.7,0-1.3,0.2-1.7,0.7
		c-0.5,0.5-0.8,1.1-0.9,1.9H384.5z"/>
	<path class="st0" d="M397.1,50.9c0.7-0.4,1.6-0.6,2.5-0.6v4c-0.1,0-0.4,0-0.7,0c-1,0-1.9,0.2-2.5,0.7c-0.6,0.5-1,1.1-1.1,2v6.8
		h-4.4V50.5h4.4v2.2C395.8,51.9,396.4,51.3,397.1,50.9z"/>
	<path class="st0" d="M406.1,53.3c-0.4,0-0.7,0.1-0.9,0.2c-0.2,0.1-0.3,0.3-0.3,0.6c0,0.3,0.2,0.5,0.5,0.7c0.4,0.2,0.9,0.4,1.7,0.6
		c1,0.3,1.7,0.6,2.4,0.8c0.6,0.3,1.2,0.7,1.6,1.2c0.5,0.5,0.7,1.3,0.7,2.2c0,1.3-0.5,2.4-1.6,3.2s-2.4,1.1-4.1,1.1
		c-1.1,0-2.2-0.2-3.2-0.5c-1-0.3-1.9-0.8-2.7-1.4l1.4-2.8c0.8,0.5,1.5,0.9,2.4,1.2c0.8,0.3,1.6,0.4,2.4,0.4c0.4,0,0.8-0.1,1-0.2
		c0.3-0.1,0.4-0.3,0.4-0.6c0-0.3-0.2-0.6-0.6-0.8s-0.9-0.4-1.7-0.6c-0.9-0.3-1.7-0.6-2.3-0.8s-1.1-0.7-1.6-1.2
		c-0.5-0.5-0.7-1.2-0.7-2.1c0-1.3,0.5-2.4,1.5-3.2s2.3-1.1,3.9-1.1c1,0,1.9,0.1,2.9,0.4c0.9,0.3,1.8,0.6,2.7,1.2l-1.5,2.8
		C408.6,53.8,407.2,53.3,406.1,53.3z"/>
	<path class="st0" d="M424.2,51.2c1.1,0.6,1.9,1.4,2.6,2.4s0.9,2.2,0.9,3.6c0,1.4-0.3,2.6-0.9,3.6c-0.6,1-1.5,1.8-2.6,2.4
		c-1.1,0.6-2.4,0.8-3.8,0.8c-1.4,0-2.7-0.3-3.8-0.8c-1.1-0.6-1.9-1.4-2.5-2.4c-0.6-1-0.9-2.2-0.9-3.6c0-1.3,0.3-2.5,0.9-3.6
		c0.6-1,1.4-1.8,2.5-2.4s2.4-0.8,3.8-0.8C421.8,50.3,423.1,50.6,424.2,51.2z M418.3,54.8c-0.5,0.6-0.8,1.4-0.8,2.4
		c0,1,0.3,1.8,0.8,2.4c0.5,0.6,1.2,0.9,2.1,0.9c0.9,0,1.6-0.3,2.1-0.9c0.5-0.6,0.8-1.4,0.8-2.4c0-1-0.3-1.8-0.8-2.4
		c-0.5-0.6-1.2-0.9-2.1-0.9C419.5,53.9,418.8,54.2,418.3,54.8z"/>
	<path class="st0" d="M442.2,51.7c0.9,0.9,1.3,2.2,1.3,3.7v8.4h-4.4v-7.1c0-0.8-0.2-1.3-0.6-1.8c-0.4-0.4-1-0.7-1.6-0.7
		c-0.7,0-1.3,0.3-1.8,0.7c-0.5,0.5-0.7,1.1-0.8,1.8v7h-4.4V50.5h4.4v2.2c0.5-0.8,1.1-1.3,1.8-1.7c0.7-0.4,1.6-0.6,2.6-0.6
		C440.1,50.3,441.3,50.8,442.2,51.7z"/>
	<path class="st0" d="M456.7,51.6c1,0.8,1.5,2,1.5,3.5v8.7H454v-1.5c-0.9,1.1-2.2,1.7-4,1.7c-1.4,0-2.5-0.4-3.3-1.1s-1.2-1.8-1.2-3
		c0-1.3,0.4-2.2,1.3-3c0.9-0.7,2.1-1.1,3.8-1.1h3.5v-0.1c0-0.6-0.2-1.1-0.7-1.5c-0.4-0.3-1.1-0.5-1.9-0.5c-0.6,0-1.2,0.1-1.9,0.3
		s-1.4,0.4-2.1,0.8l-1.2-2.9c1.1-0.5,2.1-0.9,3.1-1.1c1-0.2,2-0.4,3.1-0.4C454.3,50.3,455.7,50.7,456.7,51.6z M453,60.5
		c0.5-0.3,0.8-0.7,0.9-1.2v-1.2h-2.6c-1.2,0-1.8,0.5-1.8,1.4c0,0.5,0.2,0.8,0.5,1.1c0.3,0.3,0.8,0.4,1.3,0.4
		C452,61,452.5,60.8,453,60.5z"/>
	<path class="st0" d="M461.3,45.5h4.4v18.2h-4.4V45.5z"/>
	<path class="st0" d="M137.7,77.1c1.4,0.7,2.5,1.7,3.2,3c0.8,1.3,1.2,2.8,1.2,4.5c0,1.7-0.4,3.2-1.2,4.5c-0.8,1.3-1.9,2.3-3.3,3
		c-1.4,0.7-3,1.1-4.9,1.1h-7.2V76h7.4C134.7,76,136.3,76.4,137.7,77.1z M135.3,89c0.7-0.4,1.2-1,1.6-1.7c0.4-0.8,0.6-1.6,0.6-2.6
		c0-1-0.2-1.9-0.6-2.6c-0.4-0.8-1-1.3-1.7-1.8c-0.7-0.4-1.5-0.6-2.4-0.6H130v9.9h3C133.9,89.6,134.7,89.4,135.3,89z"/>
	<path class="st0" d="M154.3,80.7c1.1,0.6,1.9,1.4,2.6,2.4c0.6,1,0.9,2.2,0.9,3.6c0,1.4-0.3,2.6-0.9,3.6c-0.6,1-1.5,1.8-2.6,2.4
		s-2.4,0.8-3.8,0.8c-1.4,0-2.7-0.3-3.8-0.8c-1.1-0.6-1.9-1.4-2.5-2.4s-0.9-2.2-0.9-3.6c0-1.3,0.3-2.5,0.9-3.6s1.4-1.8,2.5-2.4
		c1.1-0.6,2.4-0.8,3.8-0.8C151.9,79.8,153.2,80.1,154.3,80.7z M148.4,84.3c-0.5,0.6-0.8,1.4-0.8,2.4c0,1,0.3,1.8,0.8,2.4
		c0.5,0.6,1.2,0.9,2.1,0.9c0.9,0,1.6-0.3,2.1-0.9c0.5-0.6,0.8-1.4,0.8-2.4c0-1-0.3-1.8-0.8-2.4c-0.5-0.6-1.2-0.9-2.1-0.9
		C149.6,83.4,148.9,83.7,148.4,84.3z"/>
	<path class="st0" d="M165.9,83.4c-0.8,0-1.4,0.3-1.9,0.9c-0.5,0.6-0.7,1.4-0.7,2.3c0,1,0.2,1.7,0.7,2.3c0.5,0.6,1.1,0.9,1.9,0.9
		c1.2,0,2.1-0.5,2.6-1.5l3.2,1.8c-0.5,1-1.3,1.8-2.4,2.4c-1,0.6-2.3,0.8-3.7,0.8c-1.4,0-2.6-0.3-3.6-0.8c-1-0.6-1.8-1.3-2.4-2.4
		c-0.6-1-0.8-2.2-0.8-3.5c0-1.4,0.3-2.6,0.9-3.6c0.6-1,1.4-1.8,2.4-2.4c1-0.6,2.2-0.8,3.6-0.8c1.3,0,2.5,0.3,3.5,0.8
		c1,0.5,1.8,1.3,2.4,2.3l-3.2,1.8C167.9,83.9,167.1,83.4,165.9,83.4z"/>
	<path class="st0" d="M184.2,81.8c1.2,1.3,1.7,3,1.7,5.3c0,0.3,0,0.6,0,0.8h-9.2c0.2,0.8,0.6,1.3,1.1,1.7s1.2,0.6,1.9,0.6
		c0.6,0,1.1-0.1,1.7-0.3c0.5-0.2,1-0.6,1.5-1l2.3,2.3c-0.7,0.8-1.5,1.4-2.5,1.8c-1,0.4-2.1,0.6-3.3,0.6c-1.4,0-2.7-0.3-3.7-0.8
		c-1.1-0.6-1.9-1.3-2.4-2.4c-0.6-1-0.8-2.2-0.8-3.5c0-1.4,0.3-2.6,0.9-3.6c0.6-1,1.4-1.8,2.4-2.4s2.3-0.8,3.6-0.8
		C181.4,79.8,183.1,80.5,184.2,81.8z M181.7,85.5c0-0.8-0.2-1.4-0.7-1.9c-0.5-0.5-1-0.7-1.8-0.7c-0.7,0-1.3,0.2-1.7,0.7
		c-0.5,0.5-0.8,1.1-0.9,1.9H181.7z"/>
	<path class="st0" d="M200.5,81.2c0.9,0.9,1.3,2.2,1.3,3.7v8.4h-4.4v-7.1c0-0.8-0.2-1.3-0.6-1.8c-0.4-0.4-1-0.7-1.6-0.7
		c-0.7,0-1.3,0.3-1.8,0.7c-0.5,0.5-0.7,1.1-0.8,1.8v7h-4.4V80h4.4v2.2c0.5-0.8,1.1-1.3,1.8-1.7c0.7-0.4,1.6-0.6,2.6-0.6
		C198.4,79.8,199.6,80.3,200.5,81.2z"/>
	<path class="st0" d="M213.4,92.6c-0.5,0.3-1.1,0.5-1.7,0.6c-0.6,0.2-1.3,0.2-1.9,0.2c-1.3,0-2.4-0.4-3.2-1.1
		c-0.8-0.8-1.2-1.8-1.2-3.1v-5.7h-1.8v-2.9h1.8v-3.7h4.4v3.7h3.4v2.9h-3.4v5c0,0.9,0.4,1.4,1.2,1.4c0.5,0,1-0.1,1.7-0.4L213.4,92.6z
		"/>
	<path class="st0" d="M226.3,81.8c1.2,1.3,1.7,3,1.7,5.3c0,0.3,0,0.6,0,0.8h-9.2c0.2,0.8,0.6,1.3,1.1,1.7s1.2,0.6,1.9,0.6
		c0.6,0,1.1-0.1,1.7-0.3c0.5-0.2,1-0.6,1.5-1l2.3,2.3c-0.7,0.8-1.5,1.4-2.5,1.8c-1,0.4-2.1,0.6-3.3,0.6c-1.4,0-2.7-0.3-3.7-0.8
		c-1.1-0.6-1.9-1.3-2.4-2.4c-0.6-1-0.8-2.2-0.8-3.5c0-1.4,0.3-2.6,0.9-3.6c0.6-1,1.4-1.8,2.4-2.4s2.3-0.8,3.6-0.8
		C223.4,79.8,225.1,80.5,226.3,81.8z M223.8,85.5c0-0.8-0.2-1.4-0.7-1.9c-0.5-0.5-1-0.7-1.8-0.7c-0.7,0-1.3,0.2-1.7,0.7
		c-0.5,0.5-0.8,1.1-0.9,1.9H223.8z"/>
	<path class="st0" d="M248.5,81.8c1.2,1.3,1.7,3,1.7,5.3c0,0.3,0,0.6,0,0.8h-9.2c0.2,0.8,0.6,1.3,1.1,1.7c0.5,0.4,1.2,0.6,1.9,0.6
		c0.6,0,1.1-0.1,1.7-0.3c0.5-0.2,1-0.6,1.5-1l2.3,2.3c-0.7,0.8-1.5,1.4-2.5,1.8s-2.1,0.6-3.3,0.6c-1.4,0-2.7-0.3-3.7-0.8
		c-1.1-0.6-1.9-1.3-2.4-2.4c-0.6-1-0.8-2.2-0.8-3.5c0-1.4,0.3-2.6,0.9-3.6c0.6-1,1.4-1.8,2.4-2.4c1-0.6,2.3-0.8,3.6-0.8
		C245.6,79.8,247.3,80.5,248.5,81.8z M246,85.5c0-0.8-0.2-1.4-0.7-1.9c-0.5-0.5-1-0.7-1.8-0.7c-0.7,0-1.3,0.2-1.7,0.7
		c-0.5,0.5-0.8,1.1-0.9,1.9H246z"/>
	<path class="st0" d="M259.8,76h4.5v17.2h-4.5V76z"/>
	<path class="st0" d="M279.9,81.2c0.9,0.9,1.3,2.2,1.3,3.7v8.4h-4.4v-7.1c0-0.8-0.2-1.3-0.6-1.8c-0.4-0.4-1-0.7-1.6-0.7
		c-0.7,0-1.3,0.3-1.8,0.7c-0.5,0.5-0.7,1.1-0.8,1.8v7h-4.4V80h4.4v2.2c0.5-0.8,1.1-1.3,1.8-1.7c0.7-0.4,1.6-0.6,2.6-0.6
		C277.9,79.8,279,80.3,279.9,81.2z"/>
	<path class="st0" d="M282.2,80h4.5l2.8,9.2l2.8-9.2h4.4l-5,13.3h-4.5L282.2,80z"/>
	<path class="st0" d="M308.6,81.8c1.2,1.3,1.7,3,1.7,5.3c0,0.3,0,0.6,0,0.8h-9.2c0.2,0.8,0.6,1.3,1.1,1.7s1.2,0.6,1.9,0.6
		c0.6,0,1.1-0.1,1.7-0.3c0.5-0.2,1-0.6,1.5-1l2.3,2.3c-0.7,0.8-1.5,1.4-2.5,1.8s-2.1,0.6-3.3,0.6c-1.4,0-2.7-0.3-3.7-0.8
		c-1.1-0.6-1.9-1.3-2.4-2.4s-0.8-2.2-0.8-3.5c0-1.4,0.3-2.6,0.9-3.6c0.6-1,1.4-1.8,2.4-2.4c1-0.6,2.3-0.8,3.6-0.8
		C305.8,79.8,307.4,80.5,308.6,81.8z M306.1,85.5c0-0.8-0.2-1.4-0.7-1.9c-0.5-0.5-1-0.7-1.8-0.7c-0.7,0-1.3,0.2-1.7,0.7
		c-0.5,0.5-0.8,1.1-0.9,1.9H306.1z"/>
	<path class="st0" d="M317.2,82.8c-0.4,0-0.7,0.1-0.9,0.2c-0.2,0.1-0.3,0.3-0.3,0.6c0,0.3,0.2,0.5,0.5,0.7c0.4,0.2,0.9,0.4,1.7,0.6
		c1,0.3,1.7,0.6,2.4,0.8c0.6,0.3,1.2,0.7,1.6,1.2s0.7,1.3,0.7,2.2c0,1.3-0.5,2.4-1.6,3.2c-1,0.8-2.4,1.1-4.1,1.1
		c-1.1,0-2.2-0.2-3.2-0.5c-1-0.3-1.9-0.8-2.7-1.4l1.4-2.8c0.8,0.5,1.5,0.9,2.4,1.2c0.8,0.3,1.6,0.4,2.4,0.4c0.4,0,0.8-0.1,1-0.2
		c0.3-0.1,0.4-0.3,0.4-0.6c0-0.3-0.2-0.6-0.6-0.8s-0.9-0.4-1.7-0.6c-0.9-0.3-1.7-0.6-2.3-0.8c-0.6-0.3-1.1-0.7-1.6-1.2
		c-0.5-0.5-0.7-1.2-0.7-2.1c0-1.3,0.5-2.4,1.5-3.2s2.3-1.1,3.9-1.1c1,0,1.9,0.1,2.9,0.4c0.9,0.3,1.8,0.6,2.7,1.2l-1.5,2.8
		C319.7,83.3,318.3,82.8,317.2,82.8z"/>
	<path class="st0" d="M333.9,92.6c-0.5,0.3-1.1,0.5-1.7,0.6c-0.6,0.2-1.3,0.2-1.9,0.2c-1.3,0-2.4-0.4-3.2-1.1
		c-0.8-0.8-1.2-1.8-1.2-3.1v-5.7H324v-2.9h1.8v-3.7h4.4v3.7h3.4v2.9h-3.4v5c0,0.9,0.4,1.4,1.2,1.4c0.5,0,1-0.1,1.7-0.4L333.9,92.6z"
		/>
	<path class="st0" d="M339.8,74.5c0.4,0.4,0.6,1,0.6,1.7c0,0.7-0.2,1.2-0.6,1.7c-0.4,0.4-1,0.7-1.7,0.7s-1.2-0.2-1.7-0.7
		c-0.4-0.4-0.7-1-0.7-1.7c0-0.7,0.2-1.2,0.7-1.7c0.4-0.4,1-0.7,1.7-0.7S339.4,74.1,339.8,74.5z M336,80h4.4v13.3H336V80z"/>
	<path class="st0" d="M356.4,80v12.1c0,1.2-0.3,2.3-0.9,3.2c-0.6,0.9-1.5,1.6-2.5,2.1s-2.4,0.8-3.8,0.8c-1.1,0-2.2-0.2-3.2-0.5
		c-1-0.3-1.9-0.7-2.7-1.3l1.5-3c0.6,0.4,1.3,0.7,2,1c0.7,0.2,1.4,0.3,2.1,0.3c1,0,1.8-0.2,2.3-0.7c0.6-0.5,0.9-1.1,0.9-1.9v-1.4
		c-0.9,1.2-2.2,1.7-3.8,1.8c-1.1,0-2.1-0.3-2.9-0.8s-1.5-1.3-2-2.3c-0.5-1-0.7-2.1-0.7-3.4c0-1.2,0.2-2.3,0.7-3.3
		c0.5-0.9,1.1-1.7,2-2.2c0.9-0.5,1.8-0.8,2.9-0.8c0.8,0,1.6,0.2,2.2,0.5c0.7,0.3,1.2,0.7,1.7,1.3V80H356.4z M351.3,88.5
		c0.5-0.6,0.7-1.3,0.7-2.2c0-0.9-0.2-1.7-0.7-2.3c-0.5-0.6-1.1-0.9-2-0.9c-0.8,0-1.5,0.3-2,0.9c-0.5,0.6-0.8,1.3-0.8,2.2
		c0,0.9,0.2,1.7,0.8,2.2c0.5,0.6,1.1,0.9,2,0.9C350.2,89.3,350.8,89.1,351.3,88.5z"/>
	<path class="st0" d="M369.9,81.1c1,0.8,1.5,2,1.5,3.5v8.7h-4.3v-1.5c-0.9,1.1-2.2,1.7-4,1.7c-1.4,0-2.5-0.4-3.3-1.1
		c-0.8-0.8-1.2-1.8-1.2-3c0-1.3,0.4-2.2,1.3-3c0.9-0.7,2.1-1.1,3.8-1.1h3.5v-0.1c0-0.6-0.2-1.1-0.7-1.5c-0.4-0.3-1.1-0.5-1.9-0.5
		c-0.6,0-1.2,0.1-1.9,0.3c-0.7,0.2-1.4,0.4-2.1,0.8l-1.2-2.9c1.1-0.5,2.1-0.9,3.1-1.1c1-0.2,2-0.4,3.1-0.4
		C367.4,79.8,368.9,80.2,369.9,81.1z M366.2,90c0.5-0.3,0.8-0.7,0.9-1.2v-1.2h-2.6c-1.2,0-1.8,0.5-1.8,1.4c0,0.5,0.2,0.8,0.5,1.1
		c0.3,0.3,0.8,0.4,1.3,0.4C365.1,90.5,365.7,90.3,366.2,90z"/>
	<path class="st0" d="M387.8,75v18.2h-4.4v-1.7c-0.5,0.6-1,1.1-1.7,1.4c-0.7,0.3-1.4,0.5-2.3,0.5c-1.2,0-2.3-0.3-3.2-0.9
		c-0.9-0.6-1.7-1.4-2.2-2.4c-0.5-1-0.8-2.2-0.8-3.6c0-1.3,0.3-2.5,0.8-3.5c0.5-1,1.2-1.8,2.1-2.4c0.9-0.6,2-0.8,3.2-0.8
		c0.8,0,1.6,0.2,2.3,0.5c0.7,0.3,1.3,0.8,1.7,1.4V75H387.8z M382.6,89.1c0.5-0.6,0.8-1.4,0.8-2.4c0-1-0.3-1.8-0.8-2.4
		c-0.5-0.6-1.2-0.9-2.1-0.9c-0.8,0-1.5,0.3-2.1,0.9s-0.8,1.4-0.8,2.4s0.3,1.8,0.8,2.4s1.2,0.9,2.1,0.9
		C381.4,90,382.1,89.7,382.6,89.1z"/>
	<path class="st0" d="M401.2,80.7c1.1,0.6,1.9,1.4,2.6,2.4s0.9,2.2,0.9,3.6c0,1.4-0.3,2.6-0.9,3.6s-1.5,1.8-2.6,2.4
		s-2.4,0.8-3.8,0.8c-1.4,0-2.7-0.3-3.8-0.8s-1.9-1.4-2.5-2.4c-0.6-1-0.9-2.2-0.9-3.6c0-1.3,0.3-2.5,0.9-3.6c0.6-1,1.4-1.8,2.5-2.4
		s2.4-0.8,3.8-0.8C398.9,79.8,400.1,80.1,401.2,80.7z M395.4,84.3c-0.5,0.6-0.8,1.4-0.8,2.4c0,1,0.3,1.8,0.8,2.4
		c0.5,0.6,1.2,0.9,2.1,0.9c0.9,0,1.6-0.3,2.1-0.9s0.8-1.4,0.8-2.4c0-1-0.3-1.8-0.8-2.4c-0.5-0.6-1.2-0.9-2.1-0.9
		C396.6,83.4,395.9,83.7,395.4,84.3z"/>
	<path class="st0" d="M413.1,80.4c0.7-0.4,1.6-0.6,2.5-0.6v4c-0.1,0-0.4,0-0.7,0c-1,0-1.9,0.2-2.5,0.7c-0.6,0.5-1,1.1-1.1,2v6.8
		h-4.4V80h4.4v2.2C411.8,81.4,412.3,80.8,413.1,80.4z"/>
	<path class="st0" d="M129,117.8c0.9,0.9,2.1,1.3,3.6,1.3c1.5,0,2.7-0.4,3.6-1.3c0.9-0.9,1.3-2.1,1.3-3.7v-9.5h1.8v9.5
		c0,2.1-0.6,3.7-1.8,4.9c-1.2,1.2-2.8,1.8-4.9,1.8s-3.7-0.6-4.9-1.8c-1.2-1.2-1.8-2.8-1.8-4.9v-9.5h1.8v9.5
		C127.7,115.7,128.1,116.9,129,117.8z"/>
	<path class="st0" d="M153.2,109.8c0.8,0.8,1.2,2,1.2,3.4v7.4h-1.8v-6.9c0-1.1-0.3-1.9-0.9-2.5s-1.4-0.9-2.5-0.9
		c-1.2,0-2.1,0.4-2.8,1.1c-0.7,0.7-1.1,1.7-1.2,2.8v6.4h-1.8v-12h1.8v2.6c0.8-1.8,2.4-2.7,4.7-2.7
		C151.2,108.6,152.4,109,153.2,109.8z"/>
	<path class="st0" d="M160,104.3c0.2,0.2,0.3,0.5,0.3,0.9c0,0.3-0.1,0.6-0.3,0.9c-0.2,0.2-0.5,0.3-0.8,0.3s-0.6-0.1-0.8-0.3
		c-0.2-0.2-0.3-0.5-0.3-0.9s0.1-0.6,0.3-0.9c0.2-0.2,0.5-0.4,0.8-0.4S159.8,104.1,160,104.3z M158.3,108.6h1.7v12h-1.7V108.6z"/>
	<path class="st0" d="M162.3,108.6h1.9l3.8,10.2l3.8-10.2h1.8l-4.7,12h-1.8L162.3,108.6z"/>
	<path class="st0" d="M184.4,110.4c1,1.2,1.4,2.8,1.3,4.9h-9.8c0.1,1.2,0.6,2.1,1.4,2.8c0.8,0.7,1.8,1.1,2.9,1.1
		c0.7,0,1.4-0.1,2-0.4c0.6-0.3,1.2-0.6,1.7-1.1l1,1c-0.6,0.6-1.3,1.1-2.1,1.5c-0.8,0.3-1.7,0.5-2.7,0.5c-1.2,0-2.2-0.3-3.1-0.8
		c-0.9-0.5-1.6-1.2-2.1-2.1s-0.8-2-0.8-3.2c0-1.2,0.3-2.2,0.8-3.1s1.2-1.6,2.1-2.1c0.9-0.5,1.9-0.8,3.1-0.8
		C182,108.6,183.4,109.2,184.4,110.4z M184.1,113.9c-0.1-1.2-0.5-2.1-1.2-2.8c-0.7-0.7-1.7-1-2.8-1c-1.2,0-2.1,0.3-2.9,1
		c-0.8,0.7-1.2,1.6-1.3,2.8H184.1z"/>
	<path class="st0" d="M192.2,109.3c0.7-0.5,1.6-0.7,2.6-0.7v1.7c-1.2,0-2.2,0.3-3,1c-0.8,0.7-1.2,1.7-1.3,2.9v6.4h-1.8v-12h1.8v2.7
		C190.9,110.4,191.5,109.8,192.2,109.3z"/>
	<path class="st0" d="M202,110.3c-0.6-0.2-1.1-0.3-1.7-0.3c-0.7,0-1.3,0.1-1.7,0.4c-0.4,0.3-0.7,0.7-0.7,1.2c0,0.4,0.1,0.7,0.4,0.9
		c0.2,0.2,0.5,0.4,0.9,0.6c0.4,0.1,0.9,0.3,1.5,0.5c0.8,0.3,1.5,0.5,2,0.8c0.5,0.2,1,0.6,1.3,1.1c0.4,0.5,0.5,1.1,0.5,1.8
		c0,1.1-0.4,2-1.3,2.5c-0.8,0.6-1.9,0.9-3.1,0.9c-0.9,0-1.7-0.1-2.5-0.4c-0.8-0.3-1.5-0.7-2.1-1.2l0.7-1.3c0.5,0.5,1.1,0.8,1.8,1.1
		c0.7,0.3,1.4,0.4,2.1,0.4c0.8,0,1.4-0.2,1.9-0.5c0.5-0.3,0.7-0.8,0.7-1.3c0-0.6-0.2-1-0.7-1.3c-0.5-0.3-1.2-0.6-2.1-0.8
		c-0.8-0.2-1.5-0.5-2-0.7s-0.9-0.6-1.3-1c-0.4-0.4-0.5-1-0.5-1.7c0-1.1,0.4-1.9,1.2-2.4c0.8-0.6,1.8-0.8,3-0.8
		c0.7,0,1.4,0.1,2.1,0.3c0.7,0.2,1.3,0.5,1.8,0.8l-0.7,1.4C203.1,110.7,202.6,110.5,202,110.3z"/>
	<path class="st0" d="M209.2,104.3c0.2,0.2,0.3,0.5,0.3,0.9c0,0.3-0.1,0.6-0.3,0.9c-0.2,0.2-0.5,0.3-0.8,0.3s-0.6-0.1-0.8-0.3
		c-0.2-0.2-0.3-0.5-0.3-0.9s0.1-0.6,0.3-0.9c0.2-0.2,0.5-0.4,0.8-0.4S209,104.1,209.2,104.3z M207.6,108.6h1.7v12h-1.7V108.6z"/>
	<path class="st0" d="M224.7,103.7v16.9h-1.8v-2.6c-0.5,0.9-1.1,1.5-1.9,2c-0.8,0.5-1.7,0.7-2.8,0.7c-1.1,0-2.1-0.3-3-0.8
		c-0.9-0.5-1.6-1.2-2-2.2c-0.5-0.9-0.7-2-0.7-3.2c0-1.2,0.2-2.2,0.7-3.2c0.5-0.9,1.2-1.6,2-2.1c0.9-0.5,1.9-0.8,3-0.8
		c1.1,0,2,0.2,2.8,0.7c0.8,0.5,1.4,1.1,1.9,2v-7.5H224.7z M220.8,118.6c0.7-0.4,1.2-0.9,1.5-1.6s0.6-1.5,0.6-2.3s-0.2-1.7-0.6-2.3
		s-0.9-1.2-1.5-1.6s-1.4-0.6-2.2-0.6s-1.6,0.2-2.2,0.6s-1.2,0.9-1.5,1.6s-0.6,1.5-0.6,2.3c0,0.9,0.2,1.6,0.6,2.3s0.9,1.2,1.5,1.6
		s1.4,0.6,2.2,0.6S220.1,119,220.8,118.6z"/>
	<path class="st0" d="M236.5,120.6v-1.9c-1,1.3-2.4,1.9-4.4,1.9c-0.8,0-1.5-0.2-2.1-0.5c-0.6-0.3-1.1-0.8-1.4-1.3
		c-0.3-0.5-0.5-1.2-0.5-1.8c0-1,0.4-1.9,1.2-2.5c0.8-0.6,1.9-0.9,3.3-1h3.9v-0.7c0-0.9-0.3-1.6-0.8-2.1s-1.3-0.7-2.4-0.7
		c-1.2,0-2.5,0.5-3.8,1.4l-0.7-1.3c0.9-0.6,1.6-1,2.4-1.2c0.7-0.3,1.6-0.4,2.5-0.4c1.5,0,2.6,0.4,3.4,1.1c0.8,0.7,1.2,1.7,1.2,3
		l0,7.9H236.5z M235.1,118.5c0.7-0.5,1.2-1.1,1.4-2V115h-3.7c-2,0-3,0.7-3,2c0,0.7,0.3,1.2,0.8,1.6c0.5,0.4,1.2,0.6,2,0.6
		C233.5,119.2,234.4,119,235.1,118.5z"/>
	<path class="st0" d="M253.3,103.7v16.9h-1.8v-2.6c-0.5,0.9-1.1,1.5-1.9,2c-0.8,0.5-1.7,0.7-2.8,0.7c-1.1,0-2.1-0.3-3-0.8
		c-0.9-0.5-1.6-1.2-2-2.2c-0.5-0.9-0.7-2-0.7-3.2c0-1.2,0.2-2.2,0.7-3.2c0.5-0.9,1.2-1.6,2-2.1c0.9-0.5,1.9-0.8,3-0.8
		c1.1,0,2,0.2,2.8,0.7s1.4,1.1,1.9,2v-7.5H253.3z M249.4,118.6c0.7-0.4,1.2-0.9,1.5-1.6s0.6-1.5,0.6-2.3s-0.2-1.7-0.6-2.3
		s-0.9-1.2-1.5-1.6c-0.7-0.4-1.4-0.6-2.2-0.6c-0.8,0-1.6,0.2-2.2,0.6c-0.7,0.4-1.2,0.9-1.5,1.6s-0.6,1.5-0.6,2.3
		c0,0.9,0.2,1.6,0.6,2.3s0.9,1.2,1.5,1.6c0.7,0.4,1.4,0.6,2.2,0.6C248,119.2,248.8,119,249.4,118.6z"/>
	<path class="st0" d="M275.6,103.7v16.9h-1.8v-2.6c-0.5,0.9-1.1,1.5-1.9,2c-0.8,0.5-1.7,0.7-2.8,0.7c-1.1,0-2.1-0.3-3-0.8
		c-0.9-0.5-1.6-1.2-2-2.2c-0.5-0.9-0.7-2-0.7-3.2c0-1.2,0.2-2.2,0.7-3.2c0.5-0.9,1.2-1.6,2-2.1c0.9-0.5,1.9-0.8,3-0.8
		c1.1,0,2,0.2,2.8,0.7s1.4,1.1,1.9,2v-7.5H275.6z M271.7,118.6c0.7-0.4,1.2-0.9,1.5-1.6s0.6-1.5,0.6-2.3s-0.2-1.7-0.6-2.3
		s-0.9-1.2-1.5-1.6c-0.7-0.4-1.4-0.6-2.2-0.6c-0.8,0-1.6,0.2-2.2,0.6c-0.7,0.4-1.2,0.9-1.5,1.6s-0.6,1.5-0.6,2.3
		c0,0.9,0.2,1.6,0.6,2.3s0.9,1.2,1.5,1.6c0.7,0.4,1.4,0.6,2.2,0.6C270.3,119.2,271.1,119,271.7,118.6z"/>
	<path class="st0" d="M289.1,110.4c1,1.2,1.4,2.8,1.3,4.9h-9.8c0.1,1.2,0.6,2.1,1.4,2.8c0.8,0.7,1.8,1.1,2.9,1.1
		c0.7,0,1.4-0.1,2-0.4c0.6-0.3,1.2-0.6,1.7-1.1l1,1c-0.6,0.6-1.3,1.1-2.1,1.5c-0.8,0.3-1.7,0.5-2.7,0.5c-1.2,0-2.2-0.3-3.1-0.8
		c-0.9-0.5-1.6-1.2-2.1-2.1c-0.5-0.9-0.8-2-0.8-3.2c0-1.2,0.3-2.2,0.8-3.1c0.5-0.9,1.2-1.6,2.1-2.1c0.9-0.5,1.9-0.8,3.1-0.8
		C286.7,108.6,288.1,109.2,289.1,110.4z M288.8,113.9c-0.1-1.2-0.5-2.1-1.2-2.8s-1.7-1-2.8-1c-1.2,0-2.1,0.3-2.9,1s-1.2,1.6-1.3,2.8
		H288.8z"/>
	<path class="st0" d="M300.5,104.7h1.8v14.3h7v1.7h-8.8V104.7z"/>
	<path class="st0" d="M319.5,120.6v-1.9c-1,1.3-2.4,1.9-4.4,1.9c-0.8,0-1.5-0.2-2.1-0.5c-0.6-0.3-1.1-0.8-1.4-1.3
		c-0.3-0.5-0.5-1.2-0.5-1.8c0-1,0.4-1.9,1.2-2.5s1.9-0.9,3.3-1h3.9v-0.7c0-0.9-0.3-1.6-0.8-2.1c-0.5-0.5-1.3-0.7-2.4-0.7
		c-1.2,0-2.5,0.5-3.8,1.4l-0.7-1.3c0.9-0.6,1.6-1,2.4-1.2c0.7-0.3,1.6-0.4,2.5-0.4c1.5,0,2.6,0.4,3.4,1.1c0.8,0.7,1.2,1.7,1.2,3
		l0,7.9H319.5z M318,118.5c0.7-0.5,1.2-1.1,1.4-2V115h-3.7c-2,0-3,0.7-3,2c0,0.7,0.2,1.2,0.8,1.6c0.5,0.4,1.2,0.6,2,0.6
		C316.4,119.2,317.3,119,318,118.5z"/>
	<path class="st0" d="M332.3,104.7h1.8v14.3h7v1.7h-8.8V104.7z"/>
	<path class="st0" d="M351.2,120.6v-1.9c-1,1.3-2.4,1.9-4.4,1.9c-0.8,0-1.5-0.2-2.1-0.5c-0.6-0.3-1.1-0.8-1.4-1.3
		c-0.3-0.5-0.5-1.2-0.5-1.8c0-1,0.4-1.9,1.2-2.5s1.9-0.9,3.3-1h3.9v-0.7c0-0.9-0.3-1.6-0.8-2.1c-0.5-0.5-1.3-0.7-2.4-0.7
		c-1.2,0-2.5,0.5-3.8,1.4l-0.7-1.3c0.9-0.6,1.6-1,2.4-1.2c0.7-0.3,1.6-0.4,2.5-0.4c1.5,0,2.6,0.4,3.4,1.1c0.8,0.7,1.2,1.7,1.2,3
		l0,7.9H351.2z M349.8,118.5c0.7-0.5,1.2-1.1,1.4-2V115h-3.7c-2,0-3,0.7-3,2c0,0.7,0.2,1.2,0.8,1.6c0.5,0.4,1.2,0.6,2,0.6
		C348.2,119.2,349.1,119,349.8,118.5z"/>
	<path class="st0" d="M367.4,108.6v10.7c0,1.2-0.3,2.2-0.8,3c-0.5,0.9-1.2,1.5-2.1,2s-2,0.7-3.2,0.7c-1.8,0-3.4-0.6-4.9-1.7l0.8-1.3
		c0.6,0.5,1.2,0.9,1.9,1.2c0.7,0.2,1.4,0.4,2.1,0.4c1.3,0,2.4-0.4,3.2-1.1c0.8-0.7,1.2-1.8,1.2-3v-1.8c-0.4,0.8-1,1.4-1.8,1.9
		c-0.8,0.4-1.6,0.6-2.6,0.6c-1.1,0-2-0.2-2.8-0.7c-0.8-0.5-1.5-1.2-1.9-2.1c-0.5-0.9-0.7-1.9-0.7-3c0-1.1,0.2-2.1,0.7-3
		s1.1-1.5,1.9-2c0.8-0.5,1.8-0.7,2.9-0.7c1,0,1.9,0.2,2.6,0.6c0.7,0.4,1.3,1.1,1.8,1.9v-2.4H367.4z M363.6,118.1
		c0.6-0.4,1.1-0.9,1.5-1.5c0.3-0.7,0.5-1.4,0.5-2.2c0-0.8-0.2-1.6-0.5-2.2c-0.3-0.7-0.8-1.2-1.5-1.5s-1.3-0.6-2.1-0.6
		c-0.8,0-1.5,0.2-2.1,0.5c-0.6,0.4-1.1,0.9-1.5,1.5c-0.4,0.7-0.5,1.4-0.5,2.2c0,0.8,0.2,1.6,0.5,2.2c0.4,0.7,0.8,1.2,1.5,1.5
		s1.3,0.5,2.1,0.5C362.3,118.7,363,118.5,363.6,118.1z"/>
	<path class="st0" d="M381.8,108.6v12h-1.8v-2.7c-0.8,1.8-2.3,2.8-4.6,2.8c-1.4,0-2.5-0.4-3.3-1.3c-0.8-0.8-1.2-2-1.2-3.4v-7.4h1.8
		v6.9c0,1.1,0.3,1.9,0.9,2.5c0.6,0.6,1.4,0.9,2.4,0.9c1.2,0,2.2-0.4,2.9-1.3c0.7-0.8,1.1-1.9,1.1-3.2v-5.9H381.8z"/>
	<path class="st0" d="M395.9,109.8c0.8,0.8,1.2,2,1.2,3.4v7.4h-1.8v-6.9c0-1.1-0.3-1.9-0.9-2.5c-0.6-0.6-1.4-0.9-2.5-0.9
		c-1.2,0-2.1,0.4-2.8,1.1c-0.7,0.7-1.1,1.7-1.2,2.8v6.4h-1.8v-12h1.8v2.6c0.8-1.8,2.4-2.7,4.7-2.7C394,108.6,395.1,109,395.9,109.8z
		"/>
	<path class="st0" d="M408.6,120.6v-1.9c-1,1.3-2.4,1.9-4.4,1.9c-0.8,0-1.5-0.2-2.1-0.5c-0.6-0.3-1.1-0.8-1.4-1.3
		c-0.3-0.5-0.5-1.2-0.5-1.8c0-1,0.4-1.9,1.2-2.5s1.9-0.9,3.3-1h3.9v-0.7c0-0.9-0.3-1.6-0.8-2.1c-0.5-0.5-1.3-0.7-2.4-0.7
		c-1.2,0-2.5,0.5-3.8,1.4l-0.7-1.3c0.9-0.6,1.6-1,2.4-1.2c0.7-0.3,1.6-0.4,2.5-0.4c1.5,0,2.6,0.4,3.4,1.1c0.8,0.7,1.2,1.7,1.2,3
		l0,7.9H408.6z M407.1,118.5c0.7-0.5,1.2-1.1,1.4-2V115h-3.7c-2,0-3,0.7-3,2c0,0.7,0.2,1.2,0.8,1.6c0.5,0.4,1.2,0.6,2,0.6
		C405.5,119.2,406.4,119,407.1,118.5z"/>
</g>
</svg>
